<?xml version="1.0" encoding="UTF-8" standalone="no"?>
<!-- Created with Inkscape (http://www.inkscape.org/) -->

<svg
   width="1920"
   height="1080"
   viewBox="0 0 1920 1080"
   version="1.1"
   id="svg5"
   xml:space="preserve"
   xmlns="http://www.w3.org/2000/svg"
   xmlns:svg="http://www.w3.org/2000/svg"><defs
     id="defs2" /><g
     id="layer6"><path
       style="display:inline;fill:#de8059;fill-opacity:1"
       d="m 370.52395,-132.93607 c -181.38291,-21.09104 -119.9153,-17.2469 -362.0386687,-22.62742 -47.1288163,-1.04731 -94.3263783,-2.07011 -141.4213513,0 -83.88548,3.68727 -137.39724,5.6373 -209.30361,50.91169 -91.27149,57.467228 -143.71004,219.61075 -172.53405,311.12698 -78.48087,249.17674 -136.7528,566.29473 -36.76956,817.41542 43.28974,108.7277 117.45203,191.7944 209.30361,263.0437 228.6371,177.354 504.56542,230.0749 786.30274,237.5879 397.24446,10.5932 790.17374,-74.348 1182.28254,-124.4508 111.4941,-14.2465 312.6875,-15.9535 424.2641,-87.6812 75.4096,-48.4776 137.9282,-183.1571 164.0487,-265.8722 6.9015,-21.8546 55.7453,-203.96549 62.2254,-240.41627 8.8222,-49.62473 27.1698,-100.04567 19.799,-149.90664 C 2275.617,513.69099 2186.7242,436.60111 2124.1488,319.61226 2088.2678,252.53039 2079.4795,202.924 2019.497,147.07821 1930.2818,64.015834 1855.3626,22.760197 1747.968,-39.59798 c -96.9903,-56.316896 -208.9827,-118.28568 -319.6123,-144.24978 -65.5233,-15.37791 -131.5697,-28.72922 -197.9899,-39.59798 -37.403,-6.12049 -75.3455,-8.44346 -113.1371,-11.31371 -111.974,-8.50436 -224.46936,-7.84363 -336.58282,-14.14214 -95.32719,-5.35546 -196.1631,-13.31037 -291.32799,-16.97056 -46.50718,-1.78874 -89.79044,3.46761 -135.7645,5.65686 -14.12613,0.67267 -28.37077,-1.56174 -42.42641,0 -13.41918,1.49102 -12.99529,10.72739 -19.79899,19.79899 -6.27115,8.36153 -25.50005,22.67162 -31.1127,28.28427 -2.4037,2.4037 -3.0454,6.30907 -5.65685,8.48528 -3.23911,2.69925 -7.88271,3.20614 -11.31371,5.65685 -32.39677,23.14056 18.96632,-7.25775 -19.79899,16.97056 -3.57547,2.23468 -7.88271,3.20614 -11.31371,5.65686 -23.39969,16.71406 5.47498,1.31611 -16.97056,14.14213 -11.58283,6.61876 -24.47506,9.22434 -36.76955,14.14214 -4.46274,1.7851 -20.73775,9.42404 -22.62742,11.31371 -0.66667,0.66667 0.84328,2.40679 0,2.82843 -17.88854,8.94427 8.36369,-7.01028 -11.31371,2.82842"
       id="path11162" /></g><g
     id="layer3"
     style="display:inline;fill:#de8059;fill-opacity:1"><path
       style="fill:#de8059;fill-opacity:1;stroke-width:2"
       d="M 894.66788,1373.7036 C 830.11284,1321.6812 787.47528,1283.5756 714.716,1212.879 676.41494,1175.6638 616.3359,1110.0142 571.1484,1056 301.69338,733.91058 122.65329,329.588 61.025562,-96 44.144505,-212.57698 37.295387,-310.15524 37.300993,-434 c 0.004,-88.96958 1.766396,-130.78808 8.850091,-210 17.898602,-200.14736 62.860146,-401.6042 132.346946,-593 l 2.90442,-8 309.23619,-0.5063 309.2362,-0.5063 -9.19442,19.5063 c -62.72938,133.0828 -97.18726,227.55972 -128.56704,352.5063 -25.41116,101.181 -40.36292,193.22592 -50.5188,311 -4.1414,48.0262 -3.4844,219.68964 1.03334,270 21.21712,236.27728 79.68896,445.18596 181.6498,649 227.55778,454.8752 632.30768,782.8292 1111.90848,900.9382 23.7525,5.8494 49.6275,11.8266 57.5,13.2826 L 1978,1272.868 V 1334.434 1396 H 1450.1679 922.33578 Z"
       id="path9968" /><path
       style="fill:#de8059;fill-opacity:1;stroke-width:2"
       d="M 900,1793 V 1530 H 562.24226 224.48452 l -12.74226,-13.5576 c -7.00824,-7.4566 -22.2033,-24.3316 -33.76678,-37.5 C -70.22404,1196.2964 -259.31878,868.32624 -381.25537,509 -469.44912,249.10812 -519.25036,-13.26114 -534.2451,-297 c -2.7479,-51.99726 -3.35035,-207.79433 -0.98799,-255.5 l 1.65891,-33.5 h 285.83332 285.83332 l -1.54622,30.5 c -2.45752,48.47518 -1.72124,224.15266 1.10854,264.5 1.38868,19.8 4.29266,54.9 6.45328,78 C 80.27182,173.6386 211.96022,547.05884 424.26978,865 771.7539,1385.3699 1322.7513,1744.0958 1934,1847.9074 l 43,7.3028 0.5184,100.395 L 1978.037,2056 H 1439.0185 900 Z"
       id="path9970" /><path
       style="fill:#de8059;fill-opacity:1;stroke-width:2"
       d="M 900,1793 V 1530 H 563.25426 226.50852 l -13.7579,-14.5 C 179.80656,1480.779 117.4167,1406.9573 73.21218,1350.3936 -249.9657,936.85866 -456.03671,430.04682 -516.92824,-101 c -14.20375,-123.87364 -17.75094,-190.5758 -17.9215,-337 -0.0826,-70.95 0.57989,-133.275 1.47229,-138.5 l 1.62254,-9.5 284.37745,-8.5e-4 L 37,-586.0017 35.3817,-552.50085 C 34.49164,-534.07538 34.18848,-469.05 34.708,-408 c 0.98186,115.37928 2.8735,149.58664 13.3824,242 43.8472,385.58414 183.2326,756.98816 401.5637,1070 175.03656,250.9423 404.823,469.3375 664.3459,631.4122 252.2504,157.533 522.2608,261.02 815.824,312.6812 24.6534,4.3384 45.0738,8.1376 45.3786,8.4426 0.305,0.305 0.8342,45.3096 1.176,100.0102 l 0.6214,99.4556 -538.5,-8e-4 H 900 Z"
       id="path9972" /><path
       style="fill:#865868;fill-opacity:1;stroke-width:4"
       d="M 883.76408,1361.639 C 401.0885,964.52175 109.03833,409.54504 47.234756,-228 39.138944,-311.51368 40.415269,-581.13388 49.279752,-660 64.419133,-794.69304 84.773,-908.20928 114.14,-1021.7343 c 14.99014,-57.9478 47.96336,-165.601 61.33964,-200.2657 l 7.71752,-20 306.36196,-1.0248 306.36196,-1.0248 -10.50444,23.0248 c -98.00924,214.8282 -144.59812,378.98208 -169.4414,597.01944 -10.19048,89.43692 -11.1376,273.7514 -1.86592,363.11912 42.4516,409.18196 218.28376,783.72432 501.89068,1069.08388 224.0268,225.41116 497.2958,380.46836 796,451.66316 29.7,7.0788 56.25,13.5495 59,14.3794 3.7113,1.1198 5,17.0052 5,61.6343 V 1396 H 1450.7641 925.5282 Z"
       id="path11082" /></g><g
     id="layer1"
     style="display:inline"><path
       style="fill:#de8059;fill-opacity:1;stroke-width:2.82843"
       d="M 2228.8554,726.65986 C 2080.3172,715.28981 1943.9426,677.2807 1813.0218,610.76246 1446.6241,424.60317 1203.9972,41.011599 1185.3282,-381.61704 c -10.9318,-247.47326 58.4571,-505.22666 190.988,-709.44876 l 15.1431,-23.3345 474.532,0.2069 474.5321,0.2068 -31.3337,7.9234 c -166.9577,42.2189 -307.1512,129.9495 -409.2812,256.12085 -147.3698,182.06054 -188.6411,426.75645 -107.7363,638.76324 54.1518,141.901879 161.2226,261.045326 290.1929,322.91327 159.0995,76.32109 340.6558,66.64631 482.3374,-25.702854 95.1877,-62.044066 157.981,-146.895267 183.4018,-247.826956 6.1684,-24.49101 7.4747,-36.77102 8.2132,-77.20644 l 0.8781,-48.08326 -2.2661,43.84062 c -3.3546,64.90015 -14.9596,109.91234 -41.8416,162.291073 -58.9857,114.931382 -175.2092,199.960127 -316.2942,231.399787 -24.3434,5.42473 -36.4532,6.24384 -93.0398,6.29319 -71.5795,0.0625 -93.3724,-3.03244 -150.9804,-21.44134 -139.4096,-44.548971 -258.6481,-148.749555 -329.6012,-288.03304 -90.7458,-178.13731 -90.8937,-382.74205 -0.4101,-567.09964 98.2305,-200.14158 291.6641,-344.2179 523.9834,-390.2816 19.8999,-3.9457 41.5849,-4.4499 152.7351,-3.5512 l 129.5423,1.0474 32.5269,7.8519 c 205.5799,49.6259 377.2768,167.33203 498.6803,341.86852 84.7326,121.8162 137.9268,262.99439 156.4058,415.1035 6.2628,51.55128 6.1918,149.4572 -0.1465,202.13218 -25.013,207.872794 -109.0122,390.03131 -250.7008,543.66332 -142.3066,154.30199 -342.692,266.68312 -550.8605,308.93622 -98.7099,20.03568 -195.1434,26.68463 -286.0728,19.72432 z"
       id="path9974" /><path
       style="fill:#5d9fa2;fill-opacity:1;stroke-width:8"
       d="M 1881.2565,1243.4722 C 1682.4139,1190.8842 1478.381,1091.2392 1305.5783,962.32391 1224.1409,901.56951 1067.8446,748.87808 1000.2113,664 817.13739,434.24672 696.25482,166.43824 639.10984,-136 c -16.72754,-88.53008 -18.87719,-122.93984 -18.74162,-300 0.1659,-216.65936 6.55009,-271.62216 52.26112,-449.92671 C 804.00964,-1398.4004 1165.7033,-1833.1087 1660,-2072.6168 c 185.0984,-89.6881 362.9811,-144.7032 572,-176.9065 106.5829,-16.4211 430.5261,-13.8826 540,4.2317 426.4832,70.5684 777.0688,245.6064 1074.8779,536.6575 325.416,318.0315 526.0663,711.07083 598.641,1172.6341 20.0844,127.73328 20.1772,453.66048 0.1648,578.92696 -50.967,319.02608 -153.6776,592.70408 -315.5331,840.75575 -63.6395,97.53072 -132.2155,188.24739 -185.4666,245.34699 -34.4149,36.9021 -40.1172,40.4284 -40.3791,24.9703 l -0.3049,-18 -434,-0.056 -434,-0.056 60,-34.3099 C 3386.5393,935.43855 3602.6066,708.88912 3744.7876,421.31552 4132.7301,-363.33984 3764.5444,-1320.2585 2960,-1618.3624 c -330.8755,-122.5976 -712.9362,-107.3434 -1034.6997,41.3118 -383.3161,177.0926 -657.2897,527.2845 -729.9745,933.0506 -21.344,119.15376 -20.0022,316.80624 2.934,432.18904 71.791,361.1524 291.9452,662.16936 601.7402,822.75992 167.6485,86.90512 305.7599,120.1884 500,120.4944 179.4672,0.2824 302.0001,-26.40752 459.0949,-100.00032 C 2908.3424,561.5264 3068.3078,426.40736 3158.7445,293.86848 3476.4482,-171.74016 3326.6293,-808.71016 2844,-1044.2988 c -168.3374,-82.1714 -131.6145,-78.8194 -835.5771,-76.2702 l -611.5771,2.2146 22.9386,-30.8228 c 80.6694,-108.3963 165.6385,-194.1367 272.2156,-274.6866 349.4773,-264.1314 796.5801,-337.3321 1221.3149,-199.9564 97.0935,31.4038 265.9326,114.7355 345.7765,170.6604 367.3414,257.2959 601.6331,670.70844 627.8597,1107.87172 C 3921.3204,227.60144 3635.6904,764.20768 3136,1065.5054 3006.0609,1143.8546 3077.7807,1136 2492.3187,1136 H 1976 v 64 c 0,46.0694 -2.8017,63.8934 -10,63.6198 -5.5,-0.2088 -43.6346,-9.2756 -84.7435,-20.1476 z"
       id="path9976" /></g><g
     id="layer2"
     style="display:inline"><path
       fill="#020202"
       opacity="1"
       stroke="none"
       d="m 1903.5564,25.691009 c 0,39.07987 0,78.159741 -0.2558,117.615481 -39.2814,0.37589 -78.307,0.37589 -117.3325,0.37589 -0.1195,-0.22711 -0.2389,-0.45423 -0.3583,-0.68134 4.7593,-4.6136 9.449,-9.30108 14.3326,-13.7826 1.061,-0.97364 2.8137,-1.69884 4.254,-1.70932 16.2773,-0.11834 32.5607,-0.29495 48.8314,0.0512 5.2866,0.11245 9.483,-0.82218 12.5393,-5.2217 0.091,-0.13082 0.3367,-0.1567 0.5112,-0.22943 12.1269,5.88528 22.0829,0.43159 26.6958,-6.1408 5.5117,-7.85312 4.5579,-18.58421 -2.2659,-25.384101 -6.8854,-6.86135 -17.6047,-7.93434 -25.6699,-2.56955 -8.8123,5.86171 -11.1406,15.709791 -6.0337,27.465461 -1.6872,0.5139 -3.2932,1.41957 -4.9048,1.42965 -16.6675,0.10432 -33.3359,0.0641 -50.0041,0.0641 -0.9272,0 -1.8543,0 -2.8324,0 0,-17.6367 -0.042,-34.860291 0.065,-52.082981 0.011,-1.70289 0.9306,-3.40028 1.4472,-5.16391 12.6026,4.61494 22.0986,2.22313 27.757,-6.54369 5.1799,-8.02547 3.9721,-18.363 -2.9326,-25.10053 -6.7355,-6.57236 -17.3163,-7.5829 -25.2155,-2.39096 -3.9417,2.59077 -6.6627,6.09588 -8.1471,10.55875 -1.9294,5.80056 -1.0457,11.29138 1.9343,16.57146 -0.7749,0.71376 -1.3616,1.37858 -2.0667,1.88201 -2.9528,2.10844 -3.6809,4.87573 -3.6386,8.45294 0.2002,16.9331 0.1374,33.870131 0.01,50.804541 -0.012,1.50263 -0.8345,3.32131 -1.8862,4.43687 -4.0481,4.29407 -8.3376,8.36673 -12.5518,12.50742 -0.4932,0.48463 -1.0776,0.87895 -1.8066,1.46548 -0.046,-0.64245 -0.083,-0.91477 -0.083,-1.18709 0,-37.912201 0,-75.824411 0.013,-113.736611 4e-4,-0.73205 0.2224,-1.464 0.6146,-2.17503 40.0632,0.0207 79.8527,0.0205 119.6488,0.22067 -17.7555,17.75325 -35.5341,35.28983 -53.2476,52.89025 -1.4063,1.39729 -2.4588,1.67746 -4.443,1.01327 -7.4161,-2.48246 -14.2823,-1.09825 -20.0631,4.1099 -5.6893,5.12573 -7.7803,11.67462 -6.0667,19.08961 2.6592,11.506971 14.3266,18.176631 25.4921,14.813591 11.2542,-3.38975 17.1851,-15.165431 13.1119,-26.222721 -0.4906,-1.33192 -0.6008,-2.14949 0.5194,-3.25125 17.4588,-17.17276 34.8626,-34.40007 52.3086,-51.58562 0.3992,-0.39323 1.1414,-0.44711 1.7236,-0.65929 z"
       id="path378"
       style="stroke-width:0.581097" /><path
       fill="#040404"
       opacity="1"
       stroke="none"
       d="m 1818.0472,36.702359 c 3.5905,3.83006 3.5845,8.42356 0.1597,11.27958 -3.1808,2.65247 -8.0236,2.12372 -10.6284,-1.16044 -2.1808,-2.74942 -2.0508,-6.60483 0.3118,-9.24997 2.559,-2.86505 6.052,-3.21569 10.1569,-0.86917 z"
       id="path386"
       style="stroke-width:0.581097" /><path
       fill="#030303"
       opacity="1"
       stroke="none"
       d="m 1883.3413,106.58527 c -1.9129,4.48254 -5.625,6.305 -9.6347,4.89446 -3.5796,-1.2592 -5.6017,-5.1486 -4.6112,-8.8693 0.9033,-3.39286 4.8525,-5.86332 8.3508,-5.22388 4.2862,0.78345 6.6086,4.26844 5.8951,9.19872 z"
       id="path388"
       style="stroke-width:0.581097" /><path
       fill="#030303"
       opacity="1"
       stroke="none"
       d="m 1824.3373,83.840309 c 3.0325,-2.92972 6.0716,-3.61519 9.0992,-2.17907 2.8892,1.37052 4.4183,4.20966 4.0833,7.58134 -0.2781,2.79876 -2.4881,5.268991 -5.4429,6.083961 -2.6979,0.7441 -5.8519,-0.24282 -7.5811,-2.491981 -2.1882,-2.84631 -2.2165,-5.81934 -0.1585,-8.99425 z"
       id="path390"
       style="stroke-width:0.581097" /></g></svg>
