<?xml version="1.0" encoding="UTF-8" standalone="no"?>
<!-- Created with Inkscape (http://www.inkscape.org/) -->

<svg
   width="1920"
   height="1080"
   viewBox="0 0 1920 1080"
   version="1.1"
   id="svg5"
   xml:space="preserve"
   xmlns="http://www.w3.org/2000/svg"
   xmlns:svg="http://www.w3.org/2000/svg"><defs
     id="defs2" /><g
     id="layer6"
     style="display:inline"><path
       style="fill:#de8059;fill-opacity:1;stroke-width:0.939272"
       d="M 215.76509,292 C 198.05919,171.58342 214.92811,281.23835 169.889,44 145.83477,-82.702916 147.08305,-119.70053 88.723599,-252 c -7.908518,-17.92841 -47.242806,-16 -63.520747,-16 -86.076757,0 -54.182163,-1.99127 -169.388662,12 -84.23827,10.23033 -70.53004,7.24499 -141.15721,28 -12.98278,3.81521 -26.01675,7.46552 -38.81823,12 -6.04628,2.14168 -13.61769,2.45737 -17.64466,8 -13.08096,18.00435 -22.72273,39.04626 -31.76037,60 -16.89207,39.16425 -33.71393,78.643018 -45.87609,120 -26.26383,89.309196 -39.6164,173.61565 -56.46289,264 -21.69989,116.42373 -48.46405,236.62338 -56.46289,356 -9.40738,140.39832 6.54973,282.37458 28.23145,420 5.36761,34.0711 42.95838,131.0511 45.87609,140 19.37991,59.4398 21.72759,110.471 70.57861,152 23.60136,20.0639 53.63011,27.9958 81.1654,40 33.679,14.6826 67.52628,29.2382 102.33898,40 17.17356,5.3089 35.31206,5.1465 52.93395,8 40.01841,6.4801 80.343959,11.0138 119.983636,20 25.1920991,5.711 48.735611,19.4247 74.107538,24 29.889987,5.39 136.942296,4 165.859726,4 31.76037,0 63.52075,0 95.28112,0 10.58679,0 21.29071,1.7801 31.76037,0 34.77505,-5.9126 67.79008,-24.1678 102.33898,-32 14.03253,-3.1811 28.23145,-5.3333 42.34717,-8 16.46834,-5.3333 32.73298,-11.5535 49.40502,-16 7.7704,-2.0724 16.95724,2.1948 24.70252,0 28.42156,-8.0539 44.72651,-62.8989 45.87609,-92 3.10624,-78.6331 5.36465,-157.3116 7.05786,-236 0.65968,-30.6575 3.20768,-61.54963 0,-92 -7.91195,-75.10786 -23.14223,-182.81471 -52.93395,-260 -2.35744,-6.10772 -8.56601,-9.73918 -10.58679,-16 -28.41658,-88.04024 -41.38952,-171.32097 -88.22326,-248 -4.82832,-7.90522 -8.40978,-16.88562 -14.11573,-24 -49.99384,-62.33417 -5.28353,-3.76908 -28.23144,-24 -15.57262,-13.72885 -58.49979,-58.7703 -67.04967,-68 -12.97233,-14.00378 -60.75166,-74.43063 -77.63647,-84 -4.2085,-2.38514 -10.35153,3.2 -14.11572,0 -3.393,-2.88444 -4.05885,-8.60065 -7.05786,-12 -3.34519,-3.79173 -15.00171,-2.00283 -17.64466,-4 -1.95749,-1.4792 1.05213,-5.61486 0,-8 -0.52605,-1.19257 -2.5076,0.66152 -3.52893,0 -7.36487,-4.77028 -14.69816,-9.78939 -21.17358,-16 -13.96927,-13.398 -25.87882,-29.33333 -38.81823,-44 -6.47552,-7.33992 -13.02009,-16 0,-16"
       id="path241" /><path
       style="fill:#de8059;fill-opacity:1"
       d="m 1122.8856,-98.994949 c 0,9.42809 -2.5072,19.195661 0,28.284271 12.6855,45.985131 29.6876,90.673287 45.2548,135.764502 37.9741,109.993846 80.8539,216.654796 135.7645,319.612266 5.6818,10.65339 17.0898,17.5552 22.6274,28.28427 0.4466,0.86531 74.6187,168.16966 98.995,206.47518 7.9066,12.42473 19.0306,22.48427 28.2842,33.94113 10.5475,13.0587 21.041,26.16899 31.1127,39.59798 15.3883,20.51774 28.7158,42.62347 45.2549,62.22539 20.5429,24.34715 81.9431,73.24725 107.4802,87.68124 26.431,14.93925 54.412,26.97519 82.0244,39.59798 5.423,2.47911 11.8575,2.589 16.9706,5.65686 26.0544,15.63265 38.4771,33.7485 67.8822,45.25483 18.1809,7.11425 62.8161,13.03941 79.196,16.97056 8.6973,2.08735 16.734,6.50305 25.4558,8.48529 40.2541,9.14865 94.9941,12.36818 135.7645,8.48528 21.3588,-2.03418 28.4012,-7.58145 48.0833,-14.14214 21.1099,-7.03666 22.786,-4.89029 45.2548,-14.14213 28.4767,-11.7257 57.2805,-27.58061 82.0244,-45.25484 4.4735,-3.19534 9.225,-6.02674 14.1421,-8.48528 0.8433,-0.42164 2.4068,0.84327 2.8285,0 0.8432,-1.68655 -0.4574,-3.82754 0,-5.65685 21.2182,-84.873 8.4852,45.23891 8.4852,-161.22035 0,-30.16989 0,-60.33978 0,-90.50967 0,-7.44114 2.5768,-155.77516 -2.8284,-200.81832 -3.5633,-29.69427 -42.4476,-104.52887 -56.5685,-127.27922 -19.5341,-31.47151 -66.2682,-53.16473 -93.3381,-76.36754 -5.5909,-4.79215 -8.4189,-12.33741 -14.1422,-16.97056 -53.2707,-43.12395 -115.5541,-72.62159 -178.1909,-98.99495 -24.5308,-10.328765 -48.4274,-22.289661 -73.5391,-31.112698 -9.9449,-3.494169 -20.7418,-3.771236 -31.1127,-5.656854 -19.799,-4.714045 -40.318,-7.055687 -59.3969,-14.142136 -14.2511,-5.293249 -26.2307,-15.386799 -39.598,-22.627417 -27.0182,-14.634834 -52.1397,-28.7009348 -76.3676,-48.083261 -5.2058,-4.164633 -9.0206,-9.874239 -14.1421,-14.142135 -9.8513,-8.209462 -21.624,-14.001338 -31.1127,-22.627417 -6.9061,-6.27828 -12.4012,-14.108356 -19.799,-19.79899 -5.013,-3.85615 -12.3084,-4.211624 -16.9705,-8.485281 -6.95,-6.370793 -9.8459,-16.452673 -16.9706,-22.627421 -7.3353,-6.35728 -17.3793,-8.75776 -25.4559,-14.14213 -23.0479,-15.3653 9.6166,-2.3142 -22.6274,-16.97056 -5.4283,-2.46745 -11.4342,-3.44231 -16.9705,-5.65686 -17.889,-7.15559 -27.6735,-16.8833 -48.0833,-19.79899 -14.5444,-2.07778 -61.3666,-1.87511 -76.3675,0 -8.0509,1.00636 -19.4682,9.60294 -25.4559,11.31371 -19.1589,5.47398 -40.6986,3.30012 -59.3969,11.31371 -3.8755,1.66091 -7.5425,3.77123 -11.3137,5.65685 -5.6569,3.77124 -10.7579,8.5525 -16.9706,11.31371 -4.8858,2.17145 -11.9095,-1.68702 -16.9706,0 -5.8409,1.94699 -8.5751,4.77394 -14.1421,8.48528 -6.1884,4.12558 -33.4185,-2.25197 -42.4264,0 -8.181,2.04524 -15.085,7.54247 -22.6274,11.313711 z"
       id="path799" /><path
       style="fill:#5d9fa2;fill-opacity:1"
       d="M 939.03781,265.87215 C 925.83848,236.64507 910.57798,208.26392 899.43983,178.19091 891.6564,157.17566 888.90882,134.60227 882.46926,113.13708 875.10056,88.57475 873.19454,97.2187 862.67027,73.539105 858.18841,63.454923 855.55825,52.630504 851.35656,42.426407 845.12927,27.30299 837.98731,13.377448 834.386,-2.8284271 c -2.63995,-11.8797739 -0.57064,-22.6522119 -2.82843,-33.9411259 -1.79486,-8.974317 -11.67709,-7.966423 -16.97056,-14.142135 -3.57771,-4.173994 -5.81547,-9.336479 -8.48528,-14.142136 -14.46051,-26.028925 -20.96487,-54.905996 -42.42641,-76.367536 -9.91626,-9.91626 -36.08975,-5.71755 -48.08326,-8.48528 -19.28717,-4.45088 -8.57931,-5.6882 -25.45584,-11.31371 -14.15847,-4.71948 -30.71721,-2.82842 -45.25484,-2.82842 -6.59966,0 -13.19932,0 -19.79899,0 -7.54247,0 -15.95294,-3.51288 -22.62741,0 -15.29107,8.04793 -45.38477,39.79288 -56.56855,56.56854 -11.81097,17.716462 -14.98952,21.493759 -25.45584,42.426406 -12.04156,24.08313 -17.45738,82.129068 -14.14213,110.308658 0.6967,5.922006 3.90326,11.271398 5.65685,16.970563 10.2665,33.366127 29.04079,59.239723 45.25483,90.509663 5.24394,10.11331 9.42809,20.7418 14.14214,31.1127 5.65685,12.25652 10.7264,24.80157 16.97056,36.76956 15.62923,29.95602 39.03408,53.33163 56.56854,82.02438 21.76592,35.61695 31.67285,74.33141 45.25484,113.13709 12.11903,34.62579 28.03145,72.48041 22.62742,110.30866 -4.8233,33.76304 -32.04426,30.34764 -8.48529,73.5391 11.19587,20.52576 30.14217,50.61064 45.25484,67.88225 2.23848,2.55827 6.48588,2.90768 8.48528,5.65686 5.70927,7.85025 9.36583,17.00545 14.14213,25.45584 7.48043,13.23459 16.50485,25.68305 22.62742,39.59798 1.57931,3.58933 9.78697,39.37292 14.14214,48.08326 3.04047,6.08094 7.88804,11.098 11.31371,16.97056 3.18676,5.46302 4.49706,12.06199 8.48528,16.97057 8.4079,10.34818 18.85618,18.85618 28.28427,28.28427 15.24475,15.24474 31.58482,33.64712 48.08326,48.08326 2.55827,2.23848 6.08158,3.25315 8.48528,5.65685 6.72638,6.72638 7.98956,16.64008 16.97056,22.62742 8.12522,5.41681 22.21147,12.02543 31.1127,16.97056 5.94313,3.30174 10.75784,8.5525 16.97056,11.31371 5.44892,2.42174 11.79337,2.69845 16.97057,5.65686 1.83041,1.04595 1.56351,3.9703 2.82842,5.65685 2.82843,3.77124 8.69883,4.56296 11.31373,8.48528 8.9619,13.44291 -10.86304,-2.37775 2.8284,11.31371 0.6667,0.66667 2.044,-0.52298 2.8284,0 6.7483,4.49881 13.5685,8.95002 19.799,14.14213 1.6196,1.34963 1.3377,4.16613 2.8285,5.65683 6.3913,6.3914 16.1832,10.5264 22.6274,16.9706 16.5712,16.5712 27.1749,40.0722 39.598,59.397 5.0983,7.9307 11.8487,14.7118 16.9705,22.6274 16.4795,25.4683 31.3076,57.0557 42.4264,84.8528 7.6916,19.229 14.4606,40.4409 28.2843,56.5685 14.1258,16.4801 34.8952,20.1199 53.7401,31.1127 17.0862,9.967 31.4265,23.5307 48.0833,33.9412 3.5754,2.2346 7.8827,3.2061 11.3137,5.6568 3.2549,2.325 5.0553,6.4273 8.4853,8.4853 6.1569,3.6942 13.7101,4.6798 19.7989,8.4853 1.7878,1.1173 0.8285,4.9902 2.8285,5.6568 79.3468,26.449 -12.9618,-15.4769 56.5685,16.9706 5.7312,2.6746 11.6074,5.1333 16.9706,8.4853 6.0677,3.7923 19.4648,20.6304 25.4558,22.6274 19.9021,6.634 18.1849,-20.2063 25.4559,-31.1127 1.1694,-1.7541 4.1661,-1.3377 5.6568,-2.8284 2.4037,-2.4037 3.5333,-5.8309 5.6569,-8.4853 10.2405,-12.8007 51.5207,-35.8818 67.8822,-42.4264 3.6093,-1.4437 8.1505,-0.569 11.3137,-2.8285 3.836,-2.7399 5.152,-7.9803 8.4853,-11.3137 7.7527,-7.7526 4.5321,3.3826 11.3137,-8.4852 19.4042,-48.5106 -7.5935,13.5987 14.1422,-22.6275 3.6942,-6.1569 4.9229,-13.5648 8.4852,-19.7989 0.4678,-0.8186 1.9852,0.4216 2.8285,0 1.8856,-0.9429 7.5424,-6.5997 8.4853,-8.4853 1.7384,-3.4769 1.0899,-7.8368 2.8284,-11.3137 0.5963,-1.1926 2.505,-1.5349 2.8284,-2.8285 1.1433,-4.5733 -2.8284,-10.3709 0,-14.1421 7.2646,-9.6862 21.3015,-12.8162 31.1127,-22.6274 0.6667,-0.6667 -0.6667,-2.1618 0,-2.8284 9.0267,-9.0268 9.1112,-0.9269 11.3137,-14.1422 1.5696,-9.4175 2.0783,-71.922 0,-79.1959 -3.9126,-13.694 -9.3122,-5.7528 -19.799,-14.1422 -5.75,-4.6 -8.9353,-11.7637 -14.1421,-16.9705 -3.3333,-3.3334 -7.9804,-5.152 -11.3137,-8.4853 -3.3637,-3.3637 -6.6679,-10.5074 -8.4853,-14.1422 -4.5334,-9.0668 -26.6954,-25.9707 -33.9411,-33.94108 -17.1844,-18.90277 -31.1537,-40.35119 -48.0833,-59.39697 -3.5433,-3.98618 -7.982,-7.14907 -11.3137,-11.31371 -4.2471,-5.30888 -7.7104,-11.20528 -11.3137,-16.97056 -1.1173,-1.78774 -1.1822,-4.33988 -2.8284,-5.65685 -3.2925,-2.63395 -8.3323,-2.67543 -11.3137,-5.65686 -16.4233,-16.42326 -6.5549,-13.40476 -16.9706,-28.28427 -5.4067,-7.72379 -11.3137,-15.08494 -16.9706,-22.62742 -3.1067,-4.14237 -28.9453,-34.40515 -31.1127,-36.76955 -4.5048,-4.91436 -10.221,-8.75056 -14.1421,-14.14214 -17.6533,-24.27329 1.7067,-10.36287 -19.799,-28.28427 -5.6568,-4.71404 -10.9786,-9.86214 -16.9706,-14.14213 -8.901,-6.35788 -23.3704,-7.93793 -31.1127,-16.97056 -3.5777,-4.174 -4.8651,-10.00487 -8.4852,-14.14214 -3.1043,-3.54768 -7.8098,-5.33175 -11.3137,-8.48528 -17.9137,-16.12225 -10.9349,-13.9148 -25.4559,-22.62742 -16.0277,-9.42809 -32.0555,-18.85618 -48.0832,-28.28427 -9.4281,-6.59966 -18.5252,-13.69952 -28.2843,-19.79899 -5.3632,-3.35201 -12.4984,-4.01315 -16.9706,-8.48528 -12.1714,-12.17141 -25.3403,-36.07669 -28.2843,-53.74012 -1.8599,-11.15977 0.7058,-22.64945 0,-33.94112 -2.7322,-43.7167 -0.213,-8.25266 -11.3137,-45.25484 -0.8127,-2.70914 0.3509,-5.67869 0,-8.48528 -1.3383,-10.70673 -3.1591,-21.12187 -5.6568,-31.1127 -1.372,-5.48795 1.2271,-11.44841 0,-16.97056 -1.1014,-4.95628 -4.2621,-9.2603 -5.6569,-14.14213 -0.518,-1.81307 0.8433,-3.97031 0,-5.65686 -3.7709,-7.54189 -10.3712,-12.2571 -14.1421,-19.79899 -4.6009,-9.20171 -0.3794,-8.86468 -8.4853,-16.97056 -10.6109,-10.61088 -5.2144,-1.7895 -14.1421,-8.48528 -12.1687,-9.12653 -22.502,-21.1034 -33.9411,-31.1127 -3.5477,-3.10422 -8.2459,-4.90611 -11.3138,-8.48528 -6.8599,-8.00327 -8.295,-19.51369 -14.1421,-28.28427 -2.2188,-3.3282 -6.5699,-4.9737 -8.4853,-8.48528 -8.3452,-15.29963 -5.731,-21.32446 -14.1421,-33.94113 -3.348,-5.02198 -19.738,-14.0506 -19.799,-14.14214 -1.65379,-2.48069 -0.4433,-6.69642 -2.82843,-8.48528 -4.52548,-3.39411 -11.4826,1.37199 -16.97056,0 -1.29352,-0.32338 -1.56351,-2.40679 -2.82843,-2.82842 -7.50853,-2.50285 -18.04558,-0.35834 -25.45584,-2.82843 -12.35033,-4.11678 -10.7858,-13.61423 -14.14213,-16.97056 -0.52118,-0.52118 -7.96411,-2.30726 -8.48529,-2.82843 -5.85211,-5.85212 8.94281,0.22876 -2.82842,-5.65686 -0.84328,-0.42163 -2.40679,0.84328 -2.82843,0 -0.84327,-1.68654 1.33333,-4.32352 0,-5.65685 -1.33333,-1.33333 -3.868,0.59628 -5.65685,0 -3.22491,-1.07497 -5.44482,-4.13662 -8.48529,-5.65685 -1.88561,-0.94281 -3.65685,-2.16176 -5.65685,-2.82843 -0.89443,-0.29814 -2.40679,0.84327 -2.82843,0 -0.84327,-1.68655 1.33334,-4.32352 0,-5.65686 -1.33333,-1.33333 -3.868,0.59629 -5.65685,0 -6.70697,-2.23565 -10.94219,-11.12795 -16.97056,-14.14213 -0.84328,-0.42164 -2.16176,0.66667 -2.82843,0 -1.49071,-1.49071 -1.33772,-4.16614 -2.82843,-5.65686"
       id="path801" /></g><g
     id="layer3"
     style="display:inline;fill:#de8059;fill-opacity:1"><path
       style="fill:#de8059;fill-opacity:1;stroke-width:2"
       d="M 900,1793 V 1530 H 562.24226 224.48452 l -12.74226,-13.5576 c -7.00824,-7.4566 -22.2033,-24.3316 -33.76678,-37.5 C -70.22404,1196.2964 -259.31878,868.32624 -381.25537,509 -469.44912,249.10812 -519.25036,-13.26114 -534.2451,-297 c -2.7479,-51.99726 -3.35035,-207.79433 -0.98799,-255.5 l 1.65891,-33.5 h 285.83332 285.83332 l -1.54622,30.5 c -2.45752,48.47518 -1.72124,224.15266 1.10854,264.5 1.38868,19.8 4.29266,54.9 6.45328,78 C 80.27182,173.6386 211.96022,547.05884 424.26978,865 771.7539,1385.3699 1322.7513,1744.0958 1934,1847.9074 l 43,7.3028 0.5184,100.395 L 1978.037,2056 H 1439.0185 900 Z"
       id="path9970" /><path
       style="fill:#de8059;fill-opacity:1;stroke-width:2"
       d="M 900,1793 V 1530 H 563.25426 226.50852 l -13.7579,-14.5 C 179.80656,1480.779 117.4167,1406.9573 73.21218,1350.3936 -249.9657,936.85866 -456.03671,430.04682 -516.92824,-101 c -14.20375,-123.87364 -17.75094,-190.5758 -17.9215,-337 -0.0826,-70.95 0.57989,-133.275 1.47229,-138.5 l 1.62254,-9.5 284.37745,-8.5e-4 L 37,-586.0017 35.3817,-552.50085 C 34.49164,-534.07538 34.18848,-469.05 34.708,-408 c 0.98186,115.37928 2.8735,149.58664 13.3824,242 43.8472,385.58414 183.2326,756.98816 401.5637,1070 175.03656,250.9423 404.823,469.3375 664.3459,631.4122 252.2504,157.533 522.2608,261.02 815.824,312.6812 24.6534,4.3384 45.0738,8.1376 45.3786,8.4426 0.305,0.305 0.8342,45.3096 1.176,100.0102 l 0.6214,99.4556 -538.5,-8e-4 H 900 Z"
       id="path9972" /><path
       style="display:inline;fill:#865868;fill-opacity:1;stroke-width:4"
       d="M 883.76408,1361.639 C 401.0885,964.52175 109.03833,409.54504 47.234756,-228 39.138944,-311.51368 40.415269,-581.13388 49.279752,-660 64.419133,-794.69304 84.773,-908.20928 114.14,-1021.7343 c 14.99014,-57.9478 47.96336,-165.601 61.33964,-200.2657 l 7.71752,-20 306.36196,-1.0248 306.36196,-1.0248 -10.50444,23.0248 c -98.00924,214.8282 -144.59812,378.98208 -169.4414,597.01944 -10.19048,89.43692 -11.1376,273.7514 -1.86592,363.11912 42.4516,409.18196 218.28376,783.72432 501.89068,1069.08388 224.0268,225.41116 497.2958,380.46836 796,451.66316 29.7,7.0788 56.25,13.5495 59,14.3794 3.7113,1.1198 5,17.0052 5,61.6343 V 1396 H 1450.7641 925.5282 Z"
       id="path11082" /></g><g
     id="layer1"
     style="display:inline"><path
       style="fill:#de8059;fill-opacity:1;stroke-width:2.82843"
       d="M 2228.8554,726.65986 C 2080.3172,715.28981 1943.9426,677.2807 1813.0218,610.76246 1446.6241,424.60317 1203.9972,41.011599 1185.3282,-381.61704 c -10.9318,-247.47326 58.4571,-505.22666 190.988,-709.44876 l 15.1431,-23.3345 474.532,0.2069 474.5321,0.2068 -31.3337,7.9234 c -166.9577,42.2189 -307.1512,129.9495 -409.2812,256.12085 -147.3698,182.06054 -188.6411,426.75645 -107.7363,638.76324 54.1518,141.901879 161.2226,261.045326 290.1929,322.91327 159.0995,76.32109 340.6558,66.64631 482.3374,-25.702854 95.1877,-62.044066 157.981,-146.895267 183.4018,-247.826956 6.1684,-24.49101 7.4747,-36.77102 8.2132,-77.20644 l 0.8781,-48.08326 -2.2661,43.84062 c -3.3546,64.90015 -14.9596,109.91234 -41.8416,162.291073 -58.9857,114.931382 -175.2092,199.960127 -316.2942,231.399787 -24.3434,5.42473 -36.4532,6.24384 -93.0398,6.29319 -71.5795,0.0625 -93.3724,-3.03244 -150.9804,-21.44134 -139.4096,-44.548971 -258.6481,-148.749555 -329.6012,-288.03304 -90.7458,-178.13731 -90.8937,-382.74205 -0.4101,-567.09964 98.2305,-200.14158 291.6641,-344.2179 523.9834,-390.2816 19.8999,-3.9457 41.5849,-4.4499 152.7351,-3.5512 l 129.5423,1.0474 32.5269,7.8519 c 205.5799,49.6259 377.2768,167.33203 498.6803,341.86852 84.7326,121.8162 137.9268,262.99439 156.4058,415.1035 6.2628,51.55128 6.1918,149.4572 -0.1465,202.13218 -25.013,207.872794 -109.0122,390.03131 -250.7008,543.66332 -142.3066,154.30199 -342.692,266.68312 -550.8605,308.93622 -98.7099,20.03568 -195.1434,26.68463 -286.0728,19.72432 z"
       id="path9974" /><path
       style="fill:#5d9fa2;fill-opacity:1;stroke-width:8"
       d="M 1881.2565,1243.4722 C 1682.4139,1190.8842 1478.381,1091.2392 1305.5783,962.32391 1224.1409,901.56951 1067.8446,748.87808 1000.2113,664 817.13739,434.24672 696.25482,166.43824 639.10984,-136 c -16.72754,-88.53008 -18.87719,-122.93984 -18.74162,-300 0.1659,-216.65936 6.55009,-271.62216 52.26112,-449.92671 C 804.00964,-1398.4004 1165.7033,-1833.1087 1660,-2072.6168 c 185.0984,-89.6881 362.9811,-144.7032 572,-176.9065 106.5829,-16.4211 430.5261,-13.8826 540,4.2317 426.4832,70.5684 777.0688,245.6064 1074.8779,536.6575 325.416,318.0315 526.0663,711.07083 598.641,1172.6341 20.0844,127.73328 20.1772,453.66048 0.1648,578.92696 -50.967,319.02608 -153.6776,592.70408 -315.5331,840.75575 -63.6395,97.53072 -132.2155,188.24739 -185.4666,245.34699 -34.4149,36.9021 -40.1172,40.4284 -40.3791,24.9703 l -0.3049,-18 -434,-0.056 -434,-0.056 60,-34.3099 C 3386.5393,935.43855 3602.6066,708.88912 3744.7876,421.31552 4132.7301,-363.33984 3764.5444,-1320.2585 2960,-1618.3624 c -330.8755,-122.5976 -712.9362,-107.3434 -1034.6997,41.3118 -383.3161,177.0926 -657.2897,527.2845 -729.9745,933.0506 -21.344,119.15376 -20.0022,316.80624 2.934,432.18904 71.791,361.1524 291.9452,662.16936 601.7402,822.75992 167.6485,86.90512 305.7599,120.1884 500,120.4944 179.4672,0.2824 302.0001,-26.40752 459.0949,-100.00032 C 2908.3424,561.5264 3068.3078,426.40736 3158.7445,293.86848 3476.4482,-171.74016 3326.6293,-808.71016 2844,-1044.2988 c -168.3374,-82.1714 -131.6145,-78.8194 -835.5771,-76.2702 l -611.5771,2.2146 22.9386,-30.8228 c 80.6694,-108.3963 165.6385,-194.1367 272.2156,-274.6866 349.4773,-264.1314 796.5801,-337.3321 1221.3149,-199.9564 97.0935,31.4038 265.9326,114.7355 345.7765,170.6604 367.3414,257.2959 601.6331,670.70844 627.8597,1107.87172 C 3921.3204,227.60144 3635.6904,764.20768 3136,1065.5054 3006.0609,1143.8546 3077.7807,1136 2492.3187,1136 H 1976 v 64 c 0,46.0694 -2.8017,63.8934 -10,63.6198 -5.5,-0.2088 -43.6346,-9.2756 -84.7435,-20.1476 z"
       id="path9976" /></g><g
     id="layer4"
     style="display:inline"><path
       id="path454"
       style="display:inline;fill:#ff7f00;fill-opacity:1;stroke-width:0.746253"
       d="M 878.83555,931.52148 852.9586,916.95117 C 845.91946,930.00315 838.97422,942.88307 831.9,956 c 15.58026,-8.63191 31.07818,-17.14966 46.93555,-24.47852 z" /><path
       id="path1491"
       style="display:inline;fill:#333333;fill-opacity:1;stroke-width:0.746253"
       d="m 960.10117,700 c -0.7864,1.53962 -1.02841,1.95059 -1.21289,2.38477 -7.09496,16.70012 -14.15897,33.41282 -21.21484,50.1289 -2.67538,6.33823 -5.38513,12.66224 -8.04297,19.00781 -0.4197,1.00193 0.004,2.94503 0.77539,3.74805 4.04392,4.21047 8.20366,8.33223 12.56055,12.2207 4.66311,4.16186 9.59001,8.03064 14.40234,12.02735 -11.89966,-4.0097 -22.50747,-10.21925 -31.68359,-17.41406 -24.1773,44.82924 -48.41791,89.77453 -72.72656,134.84765 l 25.87695,14.57031 c 17.12225,-7.91345 34.66442,-14.4385 53.20117,-18.1582 -0.2272,-8.13746 -1.00775,-15.92888 -0.53125,-23.64453 0.75564,-12.23615 4.34436,-23.67614 13.11328,-32.82617 8.08738,-8.43886 18.48015,-9.55327 27.27344,-3.01172 l 30.46091,-60.05469 c -3.00184,-6.04707 -5.94296,-12.12991 -8.87497,-18.21875 C 981.57005,750.87831 970.26682,725.78532 960.10117,700 Z" /><path
       id="path178"
       style="display:inline;fill:#ff7f00;fill-opacity:1;stroke-width:0.746253"
       d="m 1002.3531,793.82617 -30.46091,60.05469 c 0.47966,0.35683 0.95629,0.72245 1.42578,1.125 2.87764,2.46735 5.45388,5.51455 7.4375,8.74023 7.41526,12.05833 9.52242,25.38486 8.59766,39.29297 -0.22728,3.42006 -0.73856,6.8203 -1.09375,10 8.41552,2.45314 16.60342,4.55068 24.59762,7.22461 24.7944,8.29324 47.7205,20.55054 70.4258,33.25195 1.4369,0.80381 3.074,1.25699 4.6172,1.87305 0,0 -0.047,0.0229 -0.061,-0.23437 -6.6181,-12.47335 -13.2025,-24.69911 -19.8594,-36.88672 -0.6318,-1.15688 -1.5913,-2.22429 -2.6191,-3.06641 -4.2334,-3.4685 -8.4054,-7.03969 -12.8711,-10.19336 -8.3799,-5.91793 -16.9465,-11.57261 -25.8926,-17.64648 10.9473,2.37683 20.6733,6.78393 30.4512,11.34179 -18.5101,-34.81836 -37.146,-69.5248 -54.6954,-104.87695 z" /><path
       style="display:inline;fill:#ff7f00;fill-opacity:1;stroke-width:0.5"
       d="m 916.57383,894.50366 -13.25,-3.13302 -1.25,1.1326 c -3.98339,3.60927 -8.2089,3.54034 -11.71806,-0.19115 -1.97481,-2.09994 -2.3718,-6.46032 -0.81408,-8.94166 1.63987,-2.61221 3.82491,-3.70992 6.92787,-3.48041 3.28437,0.24293 4.95363,1.4088 6.63087,4.63123 l 1.27659,2.45269 13.34824,3.01303 13.34823,3.01303 1.7e-4,2.375 c 1.1e-4,1.59697 -0.20458,2.35644 -0.62483,2.31834 -0.34375,-0.0312 -6.5875,-1.46652 -13.875,-3.18968 z m -18.61125,-4.53201 c 2.31406,-1.62084 0.88063,-5.72165 -2,-5.72165 -1.28928,0 -2.88875,1.79949 -2.88875,3.25 0,1.45051 1.59947,3.25 2.88875,3.25 0.48881,0 1.38881,-0.35026 2,-0.77835 z"
       id="path805" /><path
       style="display:inline;fill:#ff7f00;fill-opacity:1;stroke-width:0.5"
       d="m 897.20916,913.29453 c -2.17974,-1.01674 -3.86529,-3.17679 -4.40835,-5.64934 -0.19572,-0.8911 -0.62875,-1.39519 -1.19853,-1.39519 -1.22971,0 -3.02753,-1.91105 -5.28464,-5.61746 -4.00233,-6.57225 -7.95927,-12.67589 -8.91759,-13.75556 -0.61988,-0.69836 -2.06418,-1.34347 -3.81953,-1.70603 l -2.82272,-0.58303 1.41225,-2.60744 1.41225,-2.60745 2.28258,0.48683 c 2.58094,0.55046 2.03882,0.82154 14.95895,-7.48001 5.50693,-3.53837 6.7626,-4.14835 8.21881,-3.99259 1.43677,0.15368 1.95717,-0.0876 3.17137,-1.47053 3.55544,-4.04942 10.06578,-3.08636 12.62778,1.868 1.74164,3.36796 0.1564,8.21829 -3.25477,9.95854 -4.68549,2.39036 -9.23708,0.26237 -10.98895,-5.13763 -0.523,-1.61209 -0.77547,-1.84477 -1.6944,-1.56156 -2.14562,0.66125 -18.80315,11.46293 -18.59277,12.05658 0.40331,1.13807 11.31896,18.0734 12.02901,18.66269 0.57181,0.47456 0.97025,0.28251 2.03215,-0.97949 2.65382,-3.15388 6.28618,-3.89345 9.69975,-1.97492 3.73586,2.09967 5.12494,7.14327 2.87702,10.44614 -2.50663,3.683 -6.01369,4.77745 -9.73967,3.03945 z m 4.60313,-4.13025 c 2.44043,-1.11194 2.11528,-5.05546 -0.47034,-5.70441 -1.63912,-0.41139 -2.52504,-0.0457 -3.50227,1.44577 -1.25973,1.92259 -0.1693,3.95222 2.58562,4.81267 0.0558,0.0174 0.67996,-0.23188 1.38699,-0.55403 z M 910.07383,874.25 c 2.69547,-2.69547 -0.6202,-6.8467 -3.80294,-4.76129 -0.84316,0.55246 -1.19706,1.24971 -1.19706,2.35845 0,3.05937 2.93365,4.46919 5,2.40284 z"
       id="path807" /></g><g
     id="layer5"><rect
       style="opacity:0.18599;fill:#865868;fill-opacity:1"
       id="rect2896"
       width="562"
       height="354"
       x="542"
       y="698"
       ry="177" /></g></svg>
